PathFileType	4	(X/Y/Z)	C:/Users/Carlo/Dropbox/Carlos/SARAH/CongressoMarcha2025/WorkshopOpenSim/C3D/Caso01/Walking 02.c3d.trc
DataRate	CameraRate	NumFrames	NumMarkers	Units	OrigDataRate	OrigDataStartFrame	OrigNumFrames
100.000000	100.000000	4	85	mm	100.000000	0	364
Frame#	Time	PELO			PELA			PELL			PELP			LFEO			LFEA			LFEL			LFEP			LTIO			LTIA			LTIL			LTIP			LFOO			LFOA			LFOL			LFOP			LTOO			LTOA			LTOL			LTOP			RFEO			RFEA			RFEL			RFEP			RTIO			RTIA			RTIL			RTIP			RFOO			RFOA			RFOL			RFOP			RTOO			RTOA			RTOL			RTOP			LASI			RASI			RPSI			LTHI			LKNE			LTIB			LANK			LHEE			LTOE			RTHI			RKNE			RTIB			RANK			RHEE			RTOE			LPSI			LHipAngles			LKneeAngles			LAbsAnkleAngle			LAnkleAngles			RHipAngles			RKneeAngles			RAnkleAngles			RAbsAnkleAngle			LPelvisAngles			RPelvisAngles			LFootProgressAngles			RFootProgressAngles			LHipPower			LKneePower			LAnklePower			RHipPower			RKneePower			RAnklePower			LGroundReactionForce			LNormalisedGRF			LAnkleForce			RAnkleForce			RKneeForce			LKneeForce			RHipForce			LHipForce			LGroundReactionMoment			LAnkleMoment			RAnkleMoment			RKneeMoment			LKneeMoment			RHipMoment			LHipMoment			
		X1	Y1	Z1	X2	Y2	Z2	X3	Y3	Z3	X4	Y4	Z4	X5	Y5	Z5	X6	Y6	Z6	X7	Y7	Z7	X8	Y8	Z8	X9	Y9	Z9	X10	Y10	Z10	X11	Y11	Z11	X12	Y12	Z12	X13	Y13	Z13	X14	Y14	Z14	X15	Y15	Z15	X16	Y16	Z16	X17	Y17	Z17	X18	Y18	Z18	X19	Y19	Z19	X20	Y20	Z20	X21	Y21	Z21	X22	Y22	Z22	X23	Y23	Z23	X24	Y24	Z24	X25	Y25	Z25	X26	Y26	Z26	X27	Y27	Z27	X28	Y28	Z28	X29	Y29	Z29	X30	Y30	Z30	X31	Y31	Z31	X32	Y32	Z32	X33	Y33	Z33	X34	Y34	Z34	X35	Y35	Z35	X36	Y36	Z36	X37	Y37	Z37	X38	Y38	Z38	X39	Y39	Z39	X40	Y40	Z40	X41	Y41	Z41	X42	Y42	Z42	X43	Y43	Z43	X44	Y44	Z44	X45	Y45	Z45	X46	Y46	Z46	X47	Y47	Z47	X48	Y48	Z48	X49	Y49	Z49	X50	Y50	Z50	X51	Y51	Z51	X52	Y52	Z52	X53	Y53	Z53	X54	Y54	Z54	X55	Y55	Z55	X56	Y56	Z56	X57	Y57	Z57	X58	Y58	Z58	X59	Y59	Z59	X60	Y60	Z60	X61	Y61	Z61	X62	Y62	Z62	X63	Y63	Z63	X64	Y64	Z64	X65	Y65	Z65	X66	Y66	Z66	X67	Y67	Z67	X68	Y68	Z68	X69	Y69	Z69	X70	Y70	Z70	X71	Y71	Z71	X72	Y72	Z72	X73	Y73	Z73	X74	Y74	Z74	X75	Y75	Z75	X76	Y76	Z76	X77	Y77	Z77	X78	Y78	Z78	X79	Y79	Z79	X80	Y80	Z80	X81	Y81	Z81	X82	Y82	Z82	X83	Y83	Z83	X84	Y84	Z84	X85	Y85	Z85	

1	0	95.88773345947268	871.0518188476567	2653.934814453126	70.70462036132815	868.7340698242192	2527.513183593751	-30.36583709716798	864.4589843750005	2679.205322265626	88.96868133544925	999.788696289063	2652.952880859376	16.32671928405762	478.1980285644534	2851.106445312501	-96.76325988769537	303.8301391601564	2473.056640625001	-399.6734924316409	540.978210449219	2946.592773437501	32.74788665771486	867.7741699218755	2666.510009765626	38.685604095459	149.0101165771485	3150.874023437502	-57.98339462280276	-133.4770050048829	2847.873046875001	-375.021209716797	198.8175506591798	3236.427001953127	17.34983444213868	463.1337890625002	2864.824218750001	17.87951469421387	53.3359298706055	3029.550781250001	7.170241355896	236.534881591797	2912.354736328126	-199.3513336181642	49.92036437988284	3044.062011718751	28.25027656555177	170.9706726074219	3212.487792968752	14.422589302063	14.12432289123536	2968.571777343751	10.85276794433594	75.19069671630862	2929.506347656251	-57.98770523071292	12.98576927185059	2973.408935546876	17.87954330444337	53.33591461181643	3029.550781250001	163.6878051757813	507.2868957519534	2440.950927734376	89.12540435791018	703.7675781250002	2079.369140625001	-247.8026733398439	467.5275573730471	2504.200195312501	159.0275573730469	874.3293457031255	2641.359863281251	163.0699462890626	84.73571777343753	2314.253906250001	198.7299194335939	205.2064514160157	1912.294189453126	-256.5543212890626	95.54041290283206	2280.265136718751	163.6597595214844	488.1295166015627	2435.206787109376	191.6982421875001	125.6798095703126	2166.733886718751	188.7977600097657	329.1798095703126	2243.530273437501	-24.87019348144533	130.1105957031251	2146.813476562501	171.4981689453126	48.95652770996097	2369.277343750001	198.4316406250001	151.2542114257813	2099.219482421876	197.4648437500001	219.0874938964845	2124.818115234376	126.2421569824219	152.7311706542969	2092.579345703126	191.6982727050782	125.6798706054688	2166.733886718751	-24.87028884887697	961.5692749023442	2628.259277343751	187.8135070800782	972.6753540039067	2585.689208984376	178.2350006103516	973.7013549804692	2787.668457031251	-80.71051025390628	686.8592529296877	2783.893066406251	-39.60145950317384	486.6383361816409	2863.943603515626	-33.6625328063965	303.2362365722657	3030.171142578126	-5.565152645111086	154.3376007080079	3160.024902343752	38.23012161254884	145.1393585205079	3240.448974609377	29.34010505676271	38.40089416503908	3045.034423828126	282.412078857422	759.2422485351565	2553.378906250001	219.7709960937501	512.7058105468752	2432.330322265626	236.0023040771486	355.3273010253907	2401.822509765626	209.4029083251954	83.5427169799805	2318.006591796876	154.5638885498047	38.05078125000001	2364.661865234376	183.0808715820313	108.3109359741212	2157.592041015626	nan	nan	nan	-9.632141113281254	-6.149346828460697	-23.67629623413087	0.4004314541816714	2.015090227127076	17.69582748413087	0	0	9.695174217224125	-2.222074508666993	10.71395587921143	9.868885993957523	-3.437485456466677	-1.08477258682251	28.97068405151369	2.808940649032594	-14.78326797485352	11.63593196868897	0.5039430856704714	-0.4774238765239718	4.045942306518556	0	0	4.045811653137209	-3.076348781585695	-11.28043174743653	0.4370738565921786	3.076348781585695	11.28043174743653	0.4370738565921786	2.822347402572633	-2.729959964752198	-57.25758743286136	-0.7673396468162541	-5.328304767608644	-110.7466354370118	nan	nan	nan	nan	nan	nan	nan	nan	nan	nan	nan	nan	nan	nan	nan	nan	nan	nan	nan	nan	nan	nan	nan	nan	nan	nan	nan	nan	nan	nan	nan	nan	nan	nan	nan	nan	nan	nan	nan	nan	nan	nan	nan	nan	nan	nan	nan	nan	nan	nan	nan	nan	nan	nan	nan	nan	nan	nan	nan	nan	nan	nan	nan	
2	0.01	96.91992950439459	871.6682128906255	2644.294189453126	72.0485534667969	869.3643188476567	2517.810546875001	-29.36517333984376	864.5272827148442	2669.256591796876	89.46822357177737	1000.376220703125	2643.415039062501	15.08466720581055	477.3880004882815	2839.976318359376	-97.11456298828131	304.6596069335939	2460.267822265626	-401.646179199219	541.4070434570315	2933.993164062501	33.76445388793947	868.1165161132817	2656.715332031251	37.05887985229494	153.2265319824219	3144.910888671877	-58.3021049499512	-134.0916748046876	2846.348632812501	-376.7666320800782	203.762420654297	3228.454345703127	16.09062576293946	462.5471191406252	2853.936767578126	17.42540168762208	52.36426544189456	3027.662597656251	5.266789436340334	230.3864746093751	2902.875732421876	-199.7963256835939	47.50580978393556	3041.896484375001	26.27844429016115	177.6479797363282	3205.531005859377	14.47439193725587	10.60304737091065	2968.373291015626	10.42151832580567	69.94375610351565	2926.777587890626	-57.9328422546387	8.983568191528324	2973.117919921876	17.42539978027344	52.36428070068362	3027.662597656251	163.611801147461	508.2456359863284	2431.615478515626	87.91406250000003	704.6380615234377	2070.387695312501	-247.5366973876954	468.930847167969	2496.399658203126	160.0754699707032	875.219848632813	2631.873291015626	162.8414154052735	84.13960266113284	2312.244628906251	191.4357910156251	197.7801513671876	1908.313110351563	-256.7708129882814	92.59317016601565	2284.918457031251	163.5768280029297	488.993835449219	2426.196777343751	190.4242553710938	122.4490966796876	2163.821044921876	187.4186401367188	327.315155029297	2236.890869140626	-26.27687072753908	125.9133758544922	2145.194580078126	171.7182769775391	49.39955139160159	2367.860839843751	196.6595916748048	146.7989196777344	2095.807861328126	195.6576232910157	215.0875854492189	2120.164306640626	124.4258728027344	147.9536132812501	2089.598876953126	190.4241638183594	122.4491882324219	2163.821044921876	-24.0417823791504	961.7134399414067	2618.392333984376	188.4754638671876	973.7304687500005	2576.385009765626	178.6951599121094	974.5433959960942	2778.301025390626	-80.59353637695315	686.5955810546877	2773.079833984376	-40.8685760498047	485.9836120605471	2852.599365234376	-35.08377838134767	305.2410278320314	3021.663574218751	-7.225197792053226	158.6344451904297	3153.850830078127	36.74550247192384	152.5072479248047	3233.593017578127	29.01297569274904	38.524471282959	3044.065429687501	282.8735656738282	760.1074829101565	2543.555908203126	219.6675872802736	513.6058349609377	2422.782958984376	235.8185119628907	356.0289916992189	2393.903076171876	209.2337341308595	83.20496368408206	2315.265869140626	154.7513427734376	38.83297348022462	2363.428955078126	181.8213195800782	104.9151458740235	2154.875244140626	nan	nan	nan	-10.05511474609375	-6.201845645904545	-23.44113349914551	0.3693525195121766	2.098033905029298	18.87254142761231	0	0	8.189447402954105	-2.271404266357423	10.91305637359619	8.341340065002445	-3.004236221313478	-0.9154543280601506	28.98925971984865	2.880671024322511	-13.96901512145997	12.5943250656128	0.6240858435630801	-1.037222862243653	3.972668886184694	0	0	3.97202515602112	-3.313436031341555	-11.14151954650879	0.3913479447364809	3.313436031341555	11.14151954650879	0.3913479447364809	3.203684806823732	-2.330195903778077	-54.84058761596683	-0.7946481704711919	-4.933176040649416	-109.6981887817383	nan	nan	nan	nan	nan	nan	nan	nan	nan	nan	nan	nan	nan	nan	nan	nan	nan	nan	nan	nan	nan	nan	nan	nan	nan	nan	nan	nan	nan	nan	nan	nan	nan	nan	nan	nan	nan	nan	nan	nan	nan	nan	nan	nan	nan	nan	nan	nan	nan	nan	nan	nan	nan	nan	nan	nan	nan	nan	nan	nan	nan	nan	nan	
3	0.02	98.32557678222662	872.6045532226567	2631.601318359376	73.89822387695315	870.3143920898442	2505.031005859376	-28.0045623779297	864.7705688476567	2656.124023437501	90.19914245605472	1001.272338867188	2630.841552734376	13.49195098876954	476.3130798339846	2824.734130859376	-97.23942565917974	306.2434082031251	2442.644287109376	-404.1769714355471	541.746765136719	2916.651611328126	35.14768981933595	868.706420898438	2643.802490234376	34.89587783813478	158.9216613769532	3136.469970703127	-58.03267288208011	-134.8463439941407	2843.752685546876	-379.3092346191407	209.8965606689454	3216.809082031252	14.47232818603516	461.7759704589846	2839.012451171876	16.7330551147461	51.58662796020511	3024.867187500001	2.880493164062501	222.3758087158204	2890.514648437501	-200.4567871093751	45.00427246093751	3038.893310546876	23.67315292358399	186.4910736083985	3195.642333984377	14.41970348358155	6.618478775024418	2967.942382812501	9.802248954772953	63.54824066162112	2923.157958984376	-57.97690200805667	4.424406051635744	2972.617675781251	16.73302268981934	51.58662414550784	3024.867187500001	163.5363922119141	509.582946777344	2419.375000000001	86.53546905517581	705.8572387695315	2058.553955078126	-247.2084808349611	470.9720458984377	2486.026855468751	161.5034637451172	876.5026855468755	2619.400634765626	162.5939483642579	83.432487487793	2309.816406250001	181.8272094726563	187.8617248535157	1903.451660156251	-256.9736938476564	89.09180450439456	2291.412597656251	163.4935760498047	490.2127990722659	2414.395019531251	188.8881072998047	118.3344421386719	2160.322265625001	185.6725006103516	324.8524780273439	2228.573730468751	-27.9615936279297	120.5810775756837	2143.307617187501	172.0297088623047	50.04420471191409	2366.163330078126	194.5075225830079	141.097885131836	2091.708496093751	193.4355621337892	209.9372558593751	2114.458984375001	122.2242736816407	141.8466796875001	2086.036865234376	188.8880157470704	118.3344497680665	2160.322265625001	-22.88430404663087	962.0498657226567	2605.361328125001	189.4380645751954	975.2163696289067	2564.146484375001	179.2411346435547	975.764282226563	2765.980468750001	-80.41254425048831	686.2590942382815	2758.500244140626	-42.50096511840822	485.0851135253909	2837.056640625001	-36.9704933166504	307.8978576660157	3009.774169921876	-9.449204444885257	164.3790588378907	3145.071044921877	34.70065307617189	162.3924407958985	3223.696044921877	28.44753646850587	39.06023406982423	3042.232177734376	283.5447387695314	761.3427734375002	2530.713134765626	219.559783935547	514.8491821289065	2410.283691406251	235.6452941894532	356.983612060547	2383.572021484376	209.0450439453126	82.80593109130862	2311.853759765626	154.9982452392579	39.81287765502931	2361.927978515626	180.3182678222657	100.5983047485352	2151.541259765626	nan	nan	nan	-10.5854549407959	-6.231181621551517	-23.05603408813477	0.3133544623851777	2.280006885528565	20.50645065307618	0	0	6.255825519561771	-2.30311942100525	11.04091930389405	6.374245643615726	-2.43331003189087	-0.7006952762603762	29.01281929016115	2.973556280136109	-12.86113929748536	13.87580013275147	0.7917270660400395	-1.817976117134095	3.935696363449098	0	0	3.933682203292848	-3.613835096359255	-10.94363689422608	0.3383567929267884	3.613835096359255	10.94363689422608	0.3383567929267884	3.649415254592897	-1.826490163803101	-51.69287872314456	-0.8495515584945683	-4.444852828979494	-108.3539047241212	nan	nan	nan	nan	nan	nan	nan	nan	nan	nan	nan	nan	nan	nan	nan	nan	nan	nan	nan	nan	nan	nan	nan	nan	nan	nan	nan	nan	nan	nan	nan	nan	nan	nan	nan	nan	nan	nan	nan	nan	nan	nan	nan	nan	nan	nan	nan	nan	nan	nan	nan	nan	nan	nan	nan	nan	nan	nan	nan	nan	nan	nan	nan	
4	0.03	100.0893325805665	873.9015502929692	2616.167968750001	76.24160766601565	871.6243286132817	2489.486572265626	-26.29879760742189	865.265747070313	2640.115722656251	91.18094635009768	1002.518249511719	2615.532958984376	11.61623001098633	474.9998474121096	2805.432128906251	-96.95790100097662	308.816619873047	2420.208251953126	-407.1628417968752	541.8928222656252	2894.606445312501	36.8826370239258	869.6022949218755	2628.081787109376	32.2487030029297	166.0384826660157	3125.417480468752	-56.79312133789065	-135.6823425292969	2839.833007812501	-382.7288208007814	216.7926330566407	3201.180664062502	12.5614242553711	460.8450622558596	2820.091796875001	15.76306629180909	51.41070175170901	3021.040771484376	0.2136106491088868	212.8544769287111	2875.762939453126	-201.3710937500001	43.03273773193361	3034.970947265626	20.50175857543946	197.2778472900392	3182.632324218752	14.1835117340088	2.788321018218995	2967.177001953126	9.000450134277347	56.60290145874026	2918.750976562501	-58.1945495605469	-0.004288673400878908	2971.820312500001	15.76303005218507	51.410758972168	3021.040771484376	163.4880676269532	511.2724304199221	2404.589843750001	85.14177703857425	707.362243652344	2044.155517578126	-246.8338317871095	473.6595458984377	2473.317138671876	163.2960052490235	878.2007446289067	2604.254394531251	162.3652496337891	82.68592834472659	2307.128417968751	170.2555847167969	175.6767272949219	1898.110473632813	-257.0889282226564	85.48041534423831	2299.672119140626	163.4369812011719	491.7705688476565	2400.155029296876	187.2116699218751	113.5190048217774	2156.496337890626	183.6773834228516	321.8430480957032	2219.001953125001	-29.78488159179689	114.3887405395508	2141.327880859376	172.435043334961	50.91957855224612	2364.297607421876	192.1372528076173	134.3854370117188	2087.229248046876	190.958969116211	203.8267822265626	2108.064453125001	119.8050613403321	134.6752166748047	2082.172851562501	187.2115783691407	113.5190048217774	2156.496093750001	-21.39516258239747	962.6496582031255	2589.469726562501	190.7228088378907	977.1431274414067	2549.278076171876	179.8322448730469	977.3848266601567	2751.014160156251	-80.15715789794925	685.8682250976565	2740.330566406251	-44.43202590942384	483.9526062011721	2817.366699218751	-39.27660369873048	311.1475830078126	2994.409912109376	-12.19093322753907	171.4736938476563	3133.530761718752	32.1128387451172	174.6215209960938	3210.521972656252	27.57810020446779	40.20322799682619	3039.220214843751	284.439910888672	762.9526367187502	2515.222412109376	219.4765930175782	516.404724121094	2395.211914062501	235.5244750976564	358.1560363769532	2371.168212890626	208.8568572998048	82.37618255615237	2307.954833984376	155.2954864501954	40.94043731689455	2360.256591796876	178.6946716308594	95.54924774169925	2147.797363281251	nan	nan	nan	-11.19579505920411	-6.213753223419193	-22.49037551879884	0.2296001911163331	2.602670669555665	22.60201644897462	0	0	3.98464870452881	-2.297204732894898	11.01708126068116	4.059590816497805	-1.741867899894715	-0.4501212537288668	29.03211784362794	3.085496664047243	-11.48563575744629	15.44468307495118	1.004941582679749	-2.809941291809083	3.959005117416384	0	0	3.954245805740358	-3.962095499038698	-10.68529319763184	0.282878339290619	3.962095499038698	10.68529319763184	0.282878339290619	4.09606981277466	-1.247013807296753	-47.92771911621095	-0.9331546425819401	-3.895120382308962	-106.7647323608399	nan	nan	nan	nan	nan	nan	nan	nan	nan	nan	nan	nan	nan	nan	nan	nan	nan	nan	nan	nan	nan	nan	nan	nan	nan	nan	nan	nan	nan	nan	nan	nan	nan	nan	nan	nan	nan	nan	nan	nan	nan	nan	nan	nan	nan	nan	nan	nan	nan	nan	nan	nan	nan	nan	nan	nan	nan	nan	nan	nan	nan	nan	nan	
